<svg xmlns="http://www.w3.org/2000/svg" width="560" height="300" viewBox="0 0 560 300">
  <rect width="560" height="300" fill="#ffffff"/>
  <text x="20" y="28" font-family="Arial" font-size="18" fill="#1f2d3d">Estrategia 4: Snap de centroides a grilla</text>
  <g stroke="#c9d4df" stroke-width="1">
    <line x1="50" y1="60" x2="510" y2="60"/><line x1="50" y1="100" x2="510" y2="100"/><line x1="50" y1="140" x2="510" y2="140"/><line x1="50" y1="180" x2="510" y2="180"/><line x1="50" y1="220" x2="510" y2="220"/><line x1="50" y1="260" x2="510" y2="260"/>
    <line x1="50" y1="60" x2="50" y2="260"/><line x1="130" y1="60" x2="130" y2="260"/><line x1="210" y1="60" x2="210" y2="260"/><line x1="290" y1="60" x2="290" y2="260"/><line x1="370" y1="60" x2="370" y2="260"/><line x1="450" y1="60" x2="450" y2="260"/><line x1="510" y1="60" x2="510" y2="260"/>
  </g>
  <circle cx="118" cy="88" r="5" fill="#ef6c00"/><circle cx="252" cy="110" r="5" fill="#ef6c00"/><circle cx="332" cy="152" r="5" fill="#ef6c00"/><circle cx="428" cy="204" r="5" fill="#ef6c00"/>
  <circle cx="90" cy="80" r="5" fill="#1565c0"/><circle cx="250" cy="120" r="5" fill="#1565c0"/><circle cx="330" cy="160" r="5" fill="#1565c0"/><circle cx="410" cy="200" r="5" fill="#1565c0"/>
  <line x1="118" y1="88" x2="90" y2="80" stroke="#7f8c8d"/><line x1="252" y1="110" x2="250" y2="120" stroke="#7f8c8d"/><line x1="332" y1="152" x2="330" y2="160" stroke="#7f8c8d"/><line x1="428" y1="204" x2="410" y2="200" stroke="#7f8c8d"/>
  <text x="20" y="286" font-family="Arial" font-size="12" fill="#455a64">Naranja: centroide original | Azul: centro de celda mas cercano (snap)</text>
</svg>

